<svg width="16" height="16" viewBox="0 0 16 16" fill="none" xmlns="http://www.w3.org/2000/svg">
<path d="M14 1C14.2652 1 14.5196 1.10536 14.7071 1.29289C14.8946 1.48043 15 1.73478 15 2V14C15 14.2652 14.8946 14.5196 14.7071 14.7071C14.5196 14.8946 14.2652 15 14 15H2C1.73478 15 1.48043 14.8946 1.29289 14.7071C1.10536 14.5196 1 14.2652 1 14V2C1 1.73478 1.10536 1.48043 1.29289 1.29289C1.48043 1.10536 1.73478 1 2 1H14ZM2 0C1.46957 0 0.960859 0.210714 0.585786 0.585786C0.210714 0.960859 0 1.46957 0 2L0 14C0 14.5304 0.210714 15.0391 0.585786 15.4142C0.960859 15.7893 1.46957 16 2 16H14C14.5304 16 15.0391 15.7893 15.4142 15.4142C15.7893 15.0391 16 14.5304 16 14V2C16 1.46957 15.7893 0.960859 15.4142 0.585786C15.0391 0.210714 14.5304 0 14 0L2 0Z" fill="white"/>
<path d="M6.85398 4.64604C6.90054 4.69248 6.93748 4.74766 6.96269 4.80841C6.9879 4.86915 7.00087 4.93427 7.00087 5.00004C7.00087 5.06581 6.9879 5.13093 6.96269 5.19167C6.93748 5.25242 6.90054 5.30759 6.85398 5.35404L4.20698 8.00004L6.85398 10.646C6.94787 10.7399 7.00061 10.8673 7.00061 11C7.00061 11.1328 6.94787 11.2602 6.85398 11.354C6.76009 11.4479 6.63275 11.5007 6.49998 11.5007C6.3672 11.5007 6.23986 11.4479 6.14598 11.354L3.14598 8.35404C3.09941 8.30759 3.06247 8.25242 3.03727 8.19167C3.01206 8.13093 2.99908 8.06581 2.99908 8.00004C2.99908 7.93427 3.01206 7.86915 3.03727 7.80841C3.06247 7.74766 3.09941 7.69248 3.14598 7.64604L6.14598 4.64604C6.19242 4.59948 6.2476 4.56253 6.30834 4.53733C6.36909 4.51212 6.43421 4.49915 6.49998 4.49915C6.56575 4.49915 6.63087 4.51212 6.69161 4.53733C6.75236 4.56253 6.80753 4.59948 6.85398 4.64604V4.64604ZM9.14598 4.64604C9.09941 4.69248 9.06247 4.74766 9.03727 4.80841C9.01206 4.86915 8.99908 4.93427 8.99908 5.00004C8.99908 5.06581 9.01206 5.13093 9.03727 5.19167C9.06247 5.25242 9.09941 5.30759 9.14598 5.35404L11.793 8.00004L9.14598 10.646C9.05209 10.7399 8.99935 10.8673 8.99935 11C8.99935 11.1328 9.05209 11.2602 9.14598 11.354C9.23986 11.4479 9.3672 11.5007 9.49998 11.5007C9.63275 11.5007 9.76009 11.4479 9.85398 11.354L12.854 8.35404C12.9005 8.30759 12.9375 8.25242 12.9627 8.19167C12.9879 8.13093 13.0009 8.06581 13.0009 8.00004C13.0009 7.93427 12.9879 7.86915 12.9627 7.80841C12.9375 7.74766 12.9005 7.69248 12.854 7.64604L9.85398 4.64604C9.80753 4.59948 9.75236 4.56253 9.69161 4.53733C9.63087 4.51212 9.56575 4.49915 9.49998 4.49915C9.43421 4.49915 9.36909 4.51212 9.30834 4.53733C9.2476 4.56253 9.19242 4.59948 9.14598 4.64604V4.64604Z" fill="white"/>
</svg>
