<svg width="16" height="16" viewBox="0 0 16 16" fill="none" xmlns="http://www.w3.org/2000/svg">
<path d="M10.478 1.64697C10.4973 1.5842 10.504 1.51824 10.4978 1.45286C10.4917 1.38748 10.4727 1.32396 10.4419 1.26592C10.4112 1.20788 10.3693 1.15647 10.3187 1.11461C10.2681 1.07275 10.2098 1.04128 10.147 1.02197C10.0842 1.00267 10.0182 0.995915 9.95287 1.0021C9.88748 1.00829 9.82396 1.02729 9.76593 1.05803C9.70789 1.08877 9.65647 1.13063 9.61462 1.18124C9.57276 1.23184 9.54128 1.2902 9.52198 1.35297L5.52198 14.353C5.48299 14.4797 5.49596 14.6168 5.55804 14.734C5.62011 14.8512 5.7262 14.939 5.85298 14.978C5.97975 15.017 6.11682 15.004 6.23403 14.9419C6.35124 14.8798 6.43899 14.7737 6.47798 14.647L10.478 1.64697V1.64697ZM4.85398 4.14597C4.90054 4.19242 4.93748 4.24759 4.96269 4.30834C4.9879 4.36908 5.00087 4.4342 5.00087 4.49997C5.00087 4.56574 4.9879 4.63086 4.96269 4.6916C4.93748 4.75235 4.90054 4.80753 4.85398 4.85397L1.70698 7.99997L4.85398 11.146C4.94786 11.2399 5.00061 11.3672 5.00061 11.5C5.00061 11.6327 4.94786 11.7601 4.85398 11.854C4.76009 11.9479 4.63275 12.0006 4.49998 12.0006C4.3672 12.0006 4.23986 11.9479 4.14598 11.854L0.645978 8.35397C0.599415 8.30753 0.562472 8.25235 0.537266 8.1916C0.512059 8.13086 0.499084 8.06574 0.499084 7.99997C0.499084 7.9342 0.512059 7.86908 0.537266 7.80834C0.562472 7.74759 0.599415 7.69242 0.645978 7.64597L4.14598 4.14597C4.19242 4.09941 4.2476 4.06246 4.30834 4.03726C4.36909 4.01205 4.43421 3.99908 4.49998 3.99908C4.56575 3.99908 4.63087 4.01205 4.69161 4.03726C4.75236 4.06246 4.80753 4.09941 4.85398 4.14597V4.14597ZM11.146 4.14597C11.0994 4.19242 11.0625 4.24759 11.0373 4.30834C11.0121 4.36908 10.9991 4.4342 10.9991 4.49997C10.9991 4.56574 11.0121 4.63086 11.0373 4.6916C11.0625 4.75235 11.0994 4.80753 11.146 4.85397L14.293 7.99997L11.146 11.146C11.0995 11.1925 11.0626 11.2476 11.0375 11.3084C11.0123 11.3691 10.9993 11.4342 10.9993 11.5C10.9993 11.5657 11.0123 11.6308 11.0375 11.6916C11.0626 11.7523 11.0995 11.8075 11.146 11.854C11.1925 11.9005 11.2477 11.9373 11.3084 11.9625C11.3691 11.9877 11.4342 12.0006 11.5 12.0006C11.5657 12.0006 11.6308 11.9877 11.6916 11.9625C11.7523 11.9373 11.8075 11.9005 11.854 11.854L15.354 8.35397C15.4005 8.30753 15.4375 8.25235 15.4627 8.1916C15.4879 8.13086 15.5009 8.06574 15.5009 7.99997C15.5009 7.9342 15.4879 7.86908 15.4627 7.80834C15.4375 7.74759 15.4005 7.69242 15.354 7.64597L11.854 4.14597C11.8075 4.09941 11.7524 4.06246 11.6916 4.03726C11.6309 4.01205 11.5657 3.99908 11.5 3.99908C11.4342 3.99908 11.3691 4.01205 11.3083 4.03726C11.2476 4.06246 11.1924 4.09941 11.146 4.14597V4.14597Z" fill="white"/>
</svg>
