<svg width="16" height="16" viewBox="0 0 16 16" fill="none" xmlns="http://www.w3.org/2000/svg">
<path d="M12.6667 14H3.33333C2.97971 14 2.64057 13.8595 2.39052 13.6095C2.14048 13.3594 2 13.0203 2 12.6667V3.33333C2 2.97971 2.14048 2.64057 2.39052 2.39052C2.64057 2.14048 2.97971 2 3.33333 2H12.6667C13.0203 2 13.3594 2.14048 13.6095 2.39052C13.8595 2.64057 14 2.97971 14 3.33333V12.6667C14 13.0203 13.8595 13.3594 13.6095 13.6095C13.3594 13.8595 13.0203 14 12.6667 14ZM3.33333 3.33333V12.6667H12.6667V3.33333H3.33333ZM12 11.3333H4L6 8.66667L6.66667 9.33333L8.66667 6.66667L12 11.3333ZM5.66667 7.33333C5.40145 7.33333 5.1471 7.22798 4.95956 7.04044C4.77202 6.8529 4.66667 6.59855 4.66667 6.33333C4.66667 6.06812 4.77202 5.81376 4.95956 5.62623C5.1471 5.43869 5.40145 5.33333 5.66667 5.33333C5.93188 5.33333 6.18624 5.43869 6.37377 5.62623C6.56131 5.81376 6.66667 6.06812 6.66667 6.33333C6.66667 6.59855 6.56131 6.8529 6.37377 7.04044C6.18624 7.22798 5.93188 7.33333 5.66667 7.33333Z" fill="white"/>
</svg>
