<svg width="16" height="16" viewBox="0 0 16 16" fill="none" xmlns="http://www.w3.org/2000/svg">
<path d="M5.64337 7.52859C6.3987 6.77325 7.71604 6.77325 8.47137 7.52859L8.9427 7.99992L9.88537 7.05725L9.41404 6.58592C8.78537 5.95659 7.94804 5.60925 7.05737 5.60925C6.1667 5.60925 5.32937 5.95659 4.7007 6.58592L3.28604 7.99992C2.66223 8.62573 2.31195 9.47331 2.31195 10.3569C2.31195 11.2405 2.66223 12.0881 3.28604 12.7139C3.59528 13.0236 3.96268 13.2691 4.36711 13.4364C4.77155 13.6037 5.20505 13.6894 5.6427 13.6886C6.08048 13.6895 6.51411 13.6039 6.91867 13.4366C7.32323 13.2693 7.69073 13.0237 8.00004 12.7139L8.47137 12.2426L7.5287 11.2999L7.05737 11.7713C6.68168 12.1453 6.17315 12.3552 5.64304 12.3552C5.11292 12.3552 4.60439 12.1453 4.2287 11.7713C3.85437 11.3957 3.64417 10.8871 3.64417 10.3569C3.64417 9.8267 3.85437 9.3181 4.2287 8.94259L5.64337 7.52859Z" fill="white"/>
<path d="M8.00002 3.28604L7.52869 3.75737L8.47135 4.70004L8.94268 4.2287C9.31837 3.8547 9.8269 3.64472 10.357 3.64472C10.8871 3.64472 11.3957 3.8547 11.7714 4.2287C12.1457 4.60422 12.3559 5.11281 12.3559 5.64304C12.3559 6.17326 12.1457 6.68186 11.7714 7.05737L10.3567 8.47137C9.60135 9.2267 8.28402 9.2267 7.52869 8.47137L7.05735 8.00004L6.11469 8.9427L6.58602 9.41404C7.21468 10.0434 8.05202 10.3907 8.94268 10.3907C9.83335 10.3907 10.6707 10.0434 11.2994 9.41404L12.714 8.00004C13.3378 7.37423 13.6881 6.52665 13.6881 5.64304C13.6881 4.75942 13.3378 3.91185 12.714 3.28604C12.0884 2.66191 11.2407 2.3114 10.357 2.3114C9.4733 2.3114 8.62566 2.66191 8.00002 3.28604V3.28604Z" fill="white"/>
</svg>
